<svg width="20" height="20" viewBox="0 0 20 20" fill="none" xmlns="http://www.w3.org/2000/svg">
<path fill-rule="evenodd" clip-rule="evenodd" d="M1 6.14286C1 3.30254 3.30254 1 6.14286 1H13.8571C16.6975 1 19 3.30254 19 6.14286V13.8571C19 16.6975 16.6975 19 13.8571 19H6.14286C3.30254 19 1 16.6975 1 13.8571V6.14286Z" stroke="white" stroke-width="1.5" stroke-linecap="round" stroke-linejoin="round"/>
<path d="M7.53571 4.85714C7.53571 4.44293 7.19993 4.10714 6.78571 4.10714C6.3715 4.10714 6.03571 4.44293 6.03571 4.85714H7.53571ZM6.03571 6.78571C6.03571 7.19993 6.3715 7.53571 6.78571 7.53571C7.19993 7.53571 7.53571 7.19993 7.53571 6.78571H6.03571ZM7.53571 6.78571C7.53571 6.3715 7.19993 6.03571 6.78571 6.03571C6.3715 6.03571 6.03571 6.3715 6.03571 6.78571H7.53571ZM6.03571 8.71429C6.03571 9.1285 6.3715 9.46429 6.78571 9.46429C7.19993 9.46429 7.53571 9.1285 7.53571 8.71429H6.03571ZM6.78571 7.53571C7.19993 7.53571 7.53571 7.19993 7.53571 6.78571C7.53571 6.3715 7.19993 6.03571 6.78571 6.03571V7.53571ZM4.85714 6.03571C4.44293 6.03571 4.10714 6.3715 4.10714 6.78571C4.10714 7.19993 4.44293 7.53571 4.85714 7.53571V6.03571ZM6.78571 6.03571C6.3715 6.03571 6.03571 6.3715 6.03571 6.78571C6.03571 7.19993 6.3715 7.53571 6.78571 7.53571V6.03571ZM8.71429 7.53571C9.1285 7.53571 9.46429 7.19993 9.46429 6.78571C9.46429 6.3715 9.1285 6.03571 8.71429 6.03571V7.53571ZM11.2857 14.3929C10.8715 14.3929 10.5357 14.7286 10.5357 15.1429C10.5357 15.5571 10.8715 15.8929 11.2857 15.8929V14.3929ZM15.1429 15.8929C15.5571 15.8929 15.8929 15.5571 15.8929 15.1429C15.8929 14.7286 15.5571 14.3929 15.1429 14.3929V15.8929ZM18.0235 3.03717C18.3164 2.74427 18.3164 2.2694 18.0235 1.97651C17.7306 1.68361 17.2557 1.68361 16.9628 1.97651L18.0235 3.03717ZM1.97652 16.9628C1.68363 17.2557 1.68363 17.7306 1.97652 18.0235C2.26941 18.3163 2.74429 18.3163 3.03718 18.0235L1.97652 16.9628ZM6.03571 4.85714V6.78571H7.53571V4.85714H6.03571ZM6.03571 6.78571V8.71429H7.53571V6.78571H6.03571ZM6.78571 6.03571H4.85714V7.53571H6.78571V6.03571ZM6.78571 7.53571H8.71429V6.03571H6.78571V7.53571ZM11.2857 15.8929H15.1429V14.3929H11.2857V15.8929ZM16.9628 1.97651L1.97652 16.9628L3.03718 18.0235L18.0235 3.03717L16.9628 1.97651Z" fill="white"/>
</svg>
