<svg width="20" height="20" viewBox="0 0 20 20" fill="none" xmlns="http://www.w3.org/2000/svg">
<path d="M19 19H6.14286C3.30254 19 1 16.6975 1 13.8571V1" stroke="white" stroke-width="1.5" stroke-linecap="round" stroke-linejoin="round"/>
<path d="M14.0101 4.10718C13.5959 4.10718 13.2601 4.44296 13.2601 4.85718C13.2601 5.27139 13.5959 5.60718 14.0101 5.60718V4.10718ZM19 5.60718C19.4142 5.60718 19.75 5.27139 19.75 4.85718C19.75 4.44296 19.4142 4.10718 19 4.10718V5.60718ZM19.75 4.85718C19.75 4.44296 19.4142 4.10718 19 4.10718C18.5858 4.10718 18.25 4.44296 18.25 4.85718H19.75ZM18.25 9.49475C18.25 9.90896 18.5858 10.2447 19 10.2447C19.4142 10.2447 19.75 9.90896 19.75 9.49475H18.25ZM19.5765 5.33694C19.8415 5.01854 19.7981 4.54565 19.4797 4.2807C19.1613 4.01576 18.6884 4.05909 18.4235 4.37749L19.5765 5.33694ZM13.8571 11.0376L14.361 11.5932C14.3869 11.5697 14.4112 11.5443 14.4337 11.5174L13.8571 11.0376ZM11.8399 11.1161L11.3752 11.7048L11.3807 11.7091L11.8399 11.1161ZM10.4911 10.0515L10.9558 9.46278L10.9521 9.45984L10.4911 10.0515ZM8.32857 10.2868L7.75121 9.80809C7.74382 9.81701 7.73663 9.82609 7.72965 9.83535L8.32857 10.2868ZM8.164 10.4822L8.69945 11.0074C8.70327 11.0035 8.70705 10.9995 8.71078 10.9956L8.164 10.4822ZM4.14941 13.5043C3.85937 13.8001 3.86398 14.2749 4.1597 14.5649C4.45542 14.855 4.93027 14.8504 5.22031 14.5547L4.14941 13.5043ZM14.0101 5.60718H19V4.10718H14.0101V5.60718ZM18.25 4.85718V9.49475H19.75V4.85718H18.25ZM18.4235 4.37749L13.2806 10.5579L14.4337 11.5174L19.5765 5.33694L18.4235 4.37749ZM13.3533 10.4821C13.0583 10.7496 12.6139 10.7669 12.299 10.523L11.3807 11.7091C12.2708 12.3983 13.5271 12.3494 14.361 11.5932L13.3533 10.4821ZM12.3045 10.5274L10.9558 9.46279L10.0265 10.6402L11.3752 11.7048L12.3045 10.5274ZM10.9521 9.45984C9.96629 8.69192 8.54877 8.84615 7.75121 9.80809L8.90594 10.7655C9.18608 10.4276 9.68399 10.3734 10.0302 10.6432L10.9521 9.45984ZM7.72965 9.83535C7.69461 9.88184 7.65708 9.92641 7.61723 9.96885L8.71078 10.9956C8.7876 10.9138 8.85994 10.8278 8.92749 10.7382L7.72965 9.83535ZM7.62856 9.95705L4.14941 13.5043L5.22031 14.5547L8.69945 11.0074L7.62856 9.95705Z" fill="white"/>
</svg>
