<svg width="30" height="30" viewBox="0 0 30 30" fill="none" xmlns="http://www.w3.org/2000/svg">
<path d="M5.2015 23.9972L4.51733 24.6392L7.56044 27.6827C7.7466 27.4174 7.9092 27.1362 8.04639 26.8425M8.36551 23.8482L6.91659 22.3992L6.22774 23.0365L8.44658 25.2549C8.44892 25.2024 8.45829 25.1513 8.45829 25.0984C8.45829 24.7094 8.41893 24.2868 8.36551 23.8482ZM13.0108 20.6448L10.97 18.6035L10.2858 19.2455L11.6818 20.6415C12.1232 20.6654 12.567 20.6673 13.0108 20.6448ZM12.6804 17.0009L11.9962 17.6429L14.7479 20.3945C15.0913 20.3119 15.4288 20.2064 15.7582 20.0787M14.3908 15.3983L13.7066 16.0403L17.0736 19.4072C17.3414 19.2375 17.5994 19.0527 17.8463 18.8538M16.1012 13.7957L15.4217 14.4377ZM19.4855 17.1799L16.1012 13.7957L15.4217 14.4377L18.8777 17.8936C19.0989 17.6565 19.3032 17.4189 19.4855 17.1799ZM17.8163 12.193L17.1275 12.835L20.2596 15.9672C20.4189 15.6579 20.5487 15.3472 20.6593 15.0361L17.8163 12.193ZM18.8425 11.2324L21.0445 13.4344C21.1003 13.0239 21.1289 12.6129 21.1331 12.2015L19.5267 10.5951M19.5267 10.5951L18.8425 11.2324ZM23.8425 6.55575L23.1584 7.19774L24.3917 8.4311C24.6252 8.45115 24.8594 8.46178 25.0937 8.46297C25.2971 8.46297 25.4972 8.44188 25.6949 8.40814M24.8688 5.59511L27.1457 7.87206C27.4222 7.71695 27.687 7.537 27.9419 7.34207L25.5529 4.95312L24.8688 5.59511Z" fill="#3E3E3E"/>
<path d="M28.9972 6.40112C27.9569 7.47423 26.5979 8.46298 25.0937 8.46298C24.231 8.46298 23.2343 8.2985 22.1504 8.11528C22.0445 7.37207 21.9494 6.64714 21.9058 5.9447L23.1584 7.19775L23.8425 6.55576L21.9002 4.6134C21.9381 4.03796 22.0351 3.48219 22.2231 2.94939L24.8688 5.59513L25.553 4.95314L22.6485 2.04827C22.8791 1.66155 23.1576 1.30555 23.4775 0.988754L22.4695 0C20.0665 2.40253 20.2793 5.09232 20.6846 7.87723C17.507 7.40394 13.8093 7.2732 10.5389 10.5436C7.46345 13.619 7.39784 17.0712 7.79428 20.1162C6.83364 19.9578 5.91753 19.8266 5.07029 19.8266C3.02249 19.8266 1.26523 21.134 0 22.4789L0.998126 23.4677C1.37547 23.0608 1.78614 22.6862 2.22587 22.3477L4.51734 24.6392L5.2015 23.9972L3.02671 21.8224C3.48547 21.5661 3.96907 21.3702 4.47516 21.284L6.22774 23.0366L6.91659 22.3992L5.78257 21.2657C6.46767 21.3224 7.21743 21.4461 8.01499 21.5811C8.23196 22.8875 8.45782 24.0843 8.45782 25.0989C8.45782 26.6546 7.4925 27.9667 6.47563 28.9086L7.47844 29.9021C8.69213 28.754 9.86364 27.1279 9.86364 25.0989C9.86364 24.0876 9.67901 22.9808 9.48407 21.8201C12.6603 22.2938 16.3533 22.4241 19.6251 19.1523C22.8163 15.9611 22.7488 12.6528 22.3529 9.57638C23.3201 9.73618 24.2418 9.86926 25.0937 9.86926C27.0619 9.86926 28.7535 8.66963 30 7.38097L28.9972 6.40112ZM18.6317 18.1584C15.6748 21.1153 12.3116 20.85 9.24977 20.3585C9.13683 19.5834 9.05155 18.7919 9.03608 17.9958L10.2854 19.2455L10.9695 18.6036L9.08247 16.7165C9.13543 16.1584 9.23711 15.6012 9.40112 15.0478L11.9963 17.6429L12.6804 17.0009L9.75867 14.0787C9.94939 13.6509 10.1874 13.2273 10.4756 12.8088L13.7071 16.0403L14.3913 15.3983L11.0501 12.0572C11.2006 11.8824 11.3613 11.709 11.5328 11.537C11.7029 11.3674 11.8744 11.2113 12.0464 11.0619L15.4222 14.4377L16.1017 13.7957L12.7929 10.4869C13.1933 10.2095 13.6184 9.9695 14.0628 9.76991L17.1284 12.8355L17.8163 12.1931L15.0281 9.40487C15.5719 9.2443 16.1299 9.13695 16.6945 9.08435L18.8421 11.232L19.5262 10.5951L17.9663 9.03468C18.9592 9.05155 19.9442 9.18135 20.8997 9.33411C21.3191 12.2807 21.4906 15.2948 18.6317 18.1584Z" fill="black"/>
</svg>
