<svg width="22" height="20" viewBox="0 0 22 20" fill="none" xmlns="http://www.w3.org/2000/svg">
<path fill-rule="evenodd" clip-rule="evenodd" d="M14.4197 1H6.96495C3.66121 1.00993 0.990834 3.6958 1.00002 6.99954V13.0005C0.990834 16.3042 3.66121 18.9901 6.96495 19H14.4197C17.7235 18.9901 20.3938 16.3042 20.3846 13.0005V6.99954C20.3938 3.6958 17.7235 1.00993 14.4197 1Z" stroke="white" stroke-width="1.5" stroke-linecap="round" stroke-linejoin="round"/>
<path d="M5.09616 14.1539C5.09616 14.5681 5.43195 14.9039 5.84616 14.9039C6.26037 14.9039 6.59616 14.5681 6.59616 14.1539H5.09616ZM6.59616 8.61542C6.59616 8.20121 6.26037 7.86542 5.84616 7.86542C5.43195 7.86542 5.09616 8.20121 5.09616 8.61542H6.59616ZM9.94231 14.1539C9.94231 14.5681 10.2781 14.9039 10.6923 14.9039C11.1065 14.9039 11.4423 14.5681 11.4423 14.1539H9.94231ZM11.4423 5.84619C11.4423 5.43198 11.1065 5.09619 10.6923 5.09619C10.2781 5.09619 9.94231 5.43198 9.94231 5.84619H11.4423ZM14.7885 14.1539C14.7885 14.5681 15.1243 14.9039 15.5385 14.9039C15.9527 14.9039 16.2885 14.5681 16.2885 14.1539H14.7885ZM16.2885 8.61542C16.2885 8.20121 15.9527 7.86542 15.5385 7.86542C15.1243 7.86542 14.7885 8.20121 14.7885 8.61542H16.2885ZM6.59616 14.1539V8.61542H5.09616V14.1539H6.59616ZM11.4423 14.1539V5.84619H9.94231V14.1539H11.4423ZM16.2885 14.1539V8.61542H14.7885V14.1539H16.2885Z" fill="white"/>
</svg>
