<svg width="20" height="20" viewBox="0 0 20 20" fill="none" xmlns="http://www.w3.org/2000/svg">
<path fill-rule="evenodd" clip-rule="evenodd" d="M3.32098 14.7745C2.20906 13.6391 1.45489 12.2023 1.15202 10.6423C0.846649 9.07788 1.00346 7.4584 1.6033 5.98165C2.19801 4.51319 3.21336 3.25318 4.52182 2.35986C7.17657 0.546712 10.6715 0.546712 13.3262 2.35986C14.6347 3.25318 15.65 4.51319 16.2447 5.98165C16.8446 7.4584 17.0014 9.07788 16.696 10.6423C16.3931 12.2023 15.639 13.6391 14.5271 14.7745C13.0545 16.2856 11.034 17.1379 8.92402 17.1379C6.81405 17.1379 4.79354 16.2856 3.32098 14.7745V14.7745Z" stroke="white" stroke-width="1.5" stroke-linecap="round" stroke-linejoin="round"/>
<path d="M8.95564 4.04538C8.54373 4.08903 8.2452 4.45833 8.28884 4.87023C8.33249 5.28214 8.70179 5.58068 9.1137 5.53703L8.95564 4.04538ZM11.5107 6.94913C11.6721 7.33057 12.1123 7.50888 12.4937 7.3474C12.8751 7.18592 13.0535 6.74579 12.892 6.36435L11.5107 6.94913ZM15.174 14.1204C14.8808 13.8278 14.406 13.8282 14.1133 14.1213C13.8207 14.4145 13.8211 14.8894 14.1143 15.182L15.174 14.1204ZM18.4702 19.5302C18.7633 19.8228 19.2382 19.8224 19.5308 19.5293C19.8235 19.2361 19.8231 18.7612 19.5299 18.4686L18.4702 19.5302ZM9.1137 5.53703C10.1364 5.42866 11.1097 6.00203 11.5107 6.94913L12.892 6.36435C12.2335 4.80902 10.6352 3.86741 8.95564 4.04538L9.1137 5.53703ZM14.1143 15.182L18.4702 19.5302L19.5299 18.4686L15.174 14.1204L14.1143 15.182Z" fill="white"/>
</svg>
