<svg width="20" height="20" viewBox="0 0 20 20" fill="none" xmlns="http://www.w3.org/2000/svg">
<path fill-rule="evenodd" clip-rule="evenodd" d="M13.4611 1H6.53889C5.06172 1.00816 3.64829 1.6028 2.60956 2.65311C1.57083 3.70342 0.99188 5.12335 1.00009 6.60052V13.3993C0.99188 14.8765 1.57083 16.2964 2.60956 17.3467C3.64829 18.397 5.06172 18.9917 6.53889 18.9998H13.4611C14.9383 18.9917 16.3517 18.397 17.3904 17.3467C18.4292 16.2964 19.0081 14.8765 18.9999 13.3993V6.60052C19.0081 5.12335 18.4292 3.70342 17.3904 2.65311C16.3517 1.6028 14.9383 1.00816 13.4611 1Z" stroke="white" stroke-width="1.5" stroke-linecap="round" stroke-linejoin="round"/>
<path d="M10.8794 8.10876H15.1814V12.3966" stroke="white" stroke-width="1.5" stroke-linecap="round" stroke-linejoin="round"/>
<path d="M15.1814 8.10876L9.78143 13.663C9.30851 14.1357 8.55223 14.167 8.04187 13.735L6.88474 12.7514C6.61498 12.5222 6.26265 12.4144 5.91081 12.4533C5.55896 12.4922 5.23873 12.6745 5.02561 12.9571C4.97547 13.024 4.92662 13.0921 4.87004 13.1539L1.8795 16.4285" stroke="white" stroke-width="1.5" stroke-linecap="round" stroke-linejoin="round"/>
</svg>
