<svg width="20" height="20" viewBox="0 0 20 20" fill="none" xmlns="http://www.w3.org/2000/svg">
<path fill-rule="evenodd" clip-rule="evenodd" d="M1 8.71429V11.2857C1 15.5462 4.4538 19 8.71429 19H11.2857C15.5462 19 19 15.5462 19 11.2857V8.71429C19 4.4538 15.5462 1 11.2857 1H8.71429C4.4538 1 1 4.4538 1 8.71429Z" stroke="white" stroke-width="1.5" stroke-linecap="round" stroke-linejoin="round"/>
<path d="M9.24995 15.1428C9.24995 15.557 9.58573 15.8928 9.99995 15.8928C10.4142 15.8928 10.7499 15.557 10.7499 15.1428H9.24995ZM9.99995 8.71426H10.7499C10.7499 8.30005 10.4142 7.96426 9.99995 7.96426V8.71426ZM8.71423 7.96426C8.30002 7.96426 7.96423 8.30005 7.96423 8.71426C7.96423 9.12847 8.30002 9.46426 8.71423 9.46426V7.96426ZM9.99995 15.8928C10.4142 15.8928 10.7499 15.557 10.7499 15.1428C10.7499 14.7286 10.4142 14.3928 9.99995 14.3928V15.8928ZM8.71423 14.3928C8.30002 14.3928 7.96423 14.7286 7.96423 15.1428C7.96423 15.557 8.30002 15.8928 8.71423 15.8928V14.3928ZM9.99995 14.3928C9.58573 14.3928 9.24995 14.7286 9.24995 15.1428C9.24995 15.557 9.58573 15.8928 9.99995 15.8928V14.3928ZM11.2857 15.8928C11.6999 15.8928 12.0357 15.557 12.0357 15.1428C12.0357 14.7286 11.6999 14.3928 11.2857 14.3928V15.8928ZM10.7499 4.85712C10.7499 4.4429 10.4142 4.10712 9.99995 4.10712C9.58573 4.10712 9.24995 4.4429 9.24995 4.85712H10.7499ZM9.24995 6.14283C9.24995 6.55704 9.58573 6.89283 9.99995 6.89283C10.4142 6.89283 10.7499 6.55704 10.7499 6.14283H9.24995ZM10.7499 15.1428V8.71426H9.24995V15.1428H10.7499ZM9.99995 7.96426H8.71423V9.46426H9.99995V7.96426ZM9.99995 14.3928H8.71423V15.8928H9.99995V14.3928ZM9.99995 15.8928H11.2857V14.3928H9.99995V15.8928ZM9.24995 4.85712V6.14283H10.7499V4.85712H9.24995Z" fill="white"/>
</svg>
