<svg width="18" height="20" viewBox="0 0 18 20" fill="none" xmlns="http://www.w3.org/2000/svg">
<path d="M16.4286 19.75C16.8428 19.75 17.1786 19.4142 17.1786 19C17.1786 18.5858 16.8428 18.25 16.4286 18.25V19.75ZM1 18.25C0.585786 18.25 0.25 18.5858 0.25 19C0.25 19.4142 0.585786 19.75 1 19.75V18.25ZM2.45372 19C2.45372 19.4142 2.78951 19.75 3.20372 19.75C3.61794 19.75 3.95372 19.4142 3.95372 19H2.45372ZM3.20372 15.0631H3.95372C3.95372 15.0528 3.95351 15.0425 3.95309 15.0323L3.20372 15.0631ZM4.48944 12.7038L4.15037 12.0348C4.1364 12.0419 4.12266 12.0494 4.10917 12.0574L4.48944 12.7038ZM7.31029 11.2741L7.64937 11.9431L7.655 11.9402L7.31029 11.2741ZM10.1196 11.2741L9.77486 11.9402L9.78087 11.9433L10.1196 11.2741ZM12.9366 12.7L13.3168 12.0535C13.3032 12.0455 13.2894 12.0379 13.2753 12.0308L12.9366 12.7ZM14.2223 15.0593L13.4729 15.0284C13.4725 15.0387 13.4723 15.049 13.4723 15.0593H14.2223ZM13.4723 19C13.4723 19.4142 13.8081 19.75 14.2223 19.75C14.6365 19.75 14.9723 19.4142 14.9723 19H13.4723ZM14.9722 1C14.9722 0.585786 14.6364 0.25 14.2222 0.25C13.808 0.25 13.4722 0.585786 13.4722 1H14.9722ZM14.2222 5.5H13.4722C13.4722 5.51028 13.4724 5.52057 13.4729 5.53084L14.2222 5.5ZM12.9365 7.85929L13.2756 8.52826C13.2896 8.52119 13.3033 8.51367 13.3168 8.50573L12.9365 7.85929ZM10.1182 9.28771L9.77915 8.61871L9.77352 8.62162L10.1182 9.28771ZM7.30895 9.28771L7.65367 8.6216L7.64814 8.6188L7.30895 9.28771ZM4.49195 7.85929L4.11168 8.50573C4.12513 8.51365 4.13883 8.52114 4.15276 8.5282L4.49195 7.85929ZM3.20623 5.5L3.9556 5.53084C3.95602 5.52057 3.95623 5.51028 3.95623 5.5L3.20623 5.5ZM3.95623 1C3.95623 0.585786 3.62045 0.25 3.20623 0.25C2.79202 0.25 2.45623 0.585786 2.45623 1H3.95623ZM14.2261 0.25C13.8119 0.25 13.4761 0.585786 13.4761 1C13.4761 1.41421 13.8119 1.75 14.2261 1.75V0.25ZM16.4286 1.75C16.8428 1.75 17.1786 1.41421 17.1786 1C17.1786 0.585786 16.8428 0.25 16.4286 0.25V1.75ZM14.2248 1.75C14.6391 1.75 14.9748 1.41421 14.9748 1C14.9748 0.585786 14.6391 0.25 14.2248 0.25V1.75ZM3.2037 0.25C2.78949 0.25 2.4537 0.585786 2.4537 1C2.4537 1.41421 2.78949 1.75 3.2037 1.75V0.25ZM3.20371 1.75C3.61793 1.75 3.95371 1.41421 3.95371 1C3.95371 0.585786 3.61793 0.25 3.20371 0.25V1.75ZM1 0.25C0.585786 0.25 0.25 0.585786 0.25 1C0.25 1.41421 0.585786 1.75 1 1.75V0.25ZM6.88854 5.49505C6.53076 5.28631 6.07151 5.40713 5.86278 5.76491C5.65404 6.12268 5.77486 6.58193 6.13264 6.79066L6.88854 5.49505ZM8.7143 7.42857L8.33635 8.07638C8.5699 8.21264 8.8587 8.21264 9.09225 8.07638L8.7143 7.42857ZM11.296 6.79066C11.6537 6.58193 11.7746 6.12268 11.5658 5.76491C11.3571 5.40713 10.8978 5.28631 10.5401 5.49505L11.296 6.79066ZM16.4286 18.25H1V19.75H16.4286V18.25ZM3.95372 19V15.0631H2.45372V19H3.95372ZM3.95309 15.0323C3.92482 14.3454 4.27718 13.6988 4.86971 13.3503L4.10917 12.0574C3.03946 12.6866 2.40332 13.8539 2.45436 15.094L3.95309 15.0323ZM4.8285 13.3728L7.64936 11.9431L6.97123 10.6051L4.15037 12.0348L4.8285 13.3728ZM7.655 11.9402C8.31975 11.5962 9.11012 11.5962 9.77487 11.9402L10.4643 10.608C9.36716 10.0402 8.06271 10.0402 6.96558 10.608L7.655 11.9402ZM9.78087 11.9433L12.5979 13.3691L13.2753 12.0308L10.4583 10.605L9.78087 11.9433ZM12.5563 13.3464C13.1488 13.695 13.5012 14.3416 13.4729 15.0284L14.9717 15.0901C15.0227 13.8501 14.3866 12.6828 13.3168 12.0535L12.5563 13.3464ZM13.4723 15.0593V19H14.9723V15.0593H13.4723ZM13.4722 1V5.5H14.9722V1H13.4722ZM13.4729 5.53084C13.5011 6.2177 13.1488 6.86429 12.5562 7.21284L13.3168 8.50573C14.3865 7.87648 15.0226 6.70917 14.9716 5.46916L13.4729 5.53084ZM12.5975 7.19031L9.77917 8.61873L10.4573 9.95669L13.2756 8.52826L12.5975 7.19031ZM9.77352 8.62162C9.10877 8.96564 8.31841 8.96564 7.65366 8.62162L6.96424 9.9538C8.06137 10.5216 9.36581 10.5216 10.4629 9.9538L9.77352 8.62162ZM7.64814 8.6188L4.83114 7.19037L4.15276 8.5282L6.96976 9.95663L7.64814 8.6188ZM4.87222 7.21284C4.27969 6.86429 3.92733 6.2177 3.9556 5.53084L2.45687 5.46916C2.40583 6.70917 3.04197 7.87648 4.11168 8.50573L4.87222 7.21284ZM3.95623 5.5V1H2.45623V5.5H3.95623ZM14.2261 1.75H16.4286V0.25H14.2261V1.75ZM14.2248 0.25H3.2037V1.75H14.2248V0.25ZM3.20371 0.25H1V1.75H3.20371V0.25ZM6.13264 6.79066L8.33635 8.07638L9.09225 6.78076L6.88854 5.49505L6.13264 6.79066ZM9.09225 8.07638L11.296 6.79066L10.5401 5.49505L8.33635 6.78076L9.09225 8.07638Z" fill="white"/>
</svg>
