<svg width="20" height="20" viewBox="0 0 20 20" fill="none" xmlns="http://www.w3.org/2000/svg">
<path fill-rule="evenodd" clip-rule="evenodd" d="M1 11.2857V8.71429C1 4.4538 4.4538 1 8.71429 1H11.2857C15.5462 1 19 4.4538 19 8.71429V11.2857C19 15.5462 15.5462 19 11.2857 19H8.71429C4.4538 19 1 15.5462 1 11.2857Z" stroke="white" stroke-width="1.5" stroke-linecap="round" stroke-linejoin="round"/>
<path d="M7.42859 6.96442C7.42859 5.56299 8.58573 4.79157 10.3176 4.85714C11.5674 4.90048 12.5612 5.92088 12.5714 7.17142C12.6319 8.34082 12.0777 9.457 11.1096 10.1157C10.2867 10.6429 9.85175 11.6055 10 12.5714" stroke="white" stroke-width="1.5" stroke-linecap="round" stroke-linejoin="round"/>
<path d="M10 15.7857C9.64556 15.7857 9.35718 15.4973 9.35718 15.1429C9.35718 14.7884 9.64556 14.5 10 14.5C10.3545 14.5 10.6429 14.7884 10.6429 15.1429C10.6429 15.4973 10.3545 15.7857 10 15.7857Z" fill="white"/>
<path d="M9.99995 13.8571C10.71 13.8571 11.2857 14.4328 11.2857 15.1428C11.2857 15.8529 10.71 16.4285 9.99995 16.4285C9.28987 16.4285 8.71423 15.8529 8.71423 15.1428C8.71423 14.4328 9.28987 13.8571 9.99995 13.8571Z" fill="white"/>
</svg>
